<svg xmlns="http://www.w3.org/2000/svg" width="343" height="71" viewBox="0 0 343 71">
  <defs>
    <style>
      .cls-1 {
        fill: #cecece;
        fill-rule: evenodd;
      }
    </style>
  </defs>
  <path id="apolloBot" class="cls-1" d="M31.96,20.551a18.378,18.378,0,0,0-5.816-4.065,16.835,16.835,0,0,0-6.73-1.355,17.364,17.364,0,0,0-13.241,5.9q-5.45,5.9-5.45,15.125A20.887,20.887,0,0,0,6.355,51.038a17.733,17.733,0,0,0,13.351,5.988A16.434,16.434,0,0,0,26.09,55.8a19.6,19.6,0,0,0,5.871-4.01V56h10V16.156h-10v4.394ZM29.3,27.582A11.639,11.639,0,0,1,32.4,36a11.98,11.98,0,0,1-3.1,8.588,10.3,10.3,0,0,1-7.811,3.278A10.111,10.111,0,0,1,13.8,44.538a11.934,11.934,0,0,1-3.12-8.5,11.812,11.812,0,0,1,3.066-8.4,10.1,10.1,0,0,1,7.7-3.278A10.429,10.429,0,0,1,29.3,27.582ZM52.065,16.156V70.575H61.99V51.789a19.532,19.532,0,0,0,5.9,4.01,16.605,16.605,0,0,0,6.409,1.227,17.763,17.763,0,0,0,13.367-5.988A20.875,20.875,0,0,0,93.3,36.151q0-9.229-5.457-15.125a17.4,17.4,0,0,0-13.257-5.9,16.872,16.872,0,0,0-6.738,1.355,18.8,18.8,0,0,0-5.859,4.065V16.156H52.065Zm28.2,11.481a11.789,11.789,0,0,1,3.076,8.4,11.912,11.912,0,0,1-3.131,8.5A10.161,10.161,0,0,1,72.5,47.87a10.35,10.35,0,0,1-7.837-3.278A11.955,11.955,0,0,1,61.55,36a11.614,11.614,0,0,1,3.113-8.423A10.439,10.439,0,0,1,72.5,24.359,10.2,10.2,0,0,1,80.264,27.637Zm26.22-7.086a20.161,20.161,0,0,0-6.848,15.564A20.226,20.226,0,0,0,105.7,50.928a19.874,19.874,0,0,0,14.63,6.1,21.088,21.088,0,0,0,10.657-2.765,20.2,20.2,0,0,0,7.635-7.672,20.921,20.921,0,0,0,2.8-10.547,20.674,20.674,0,0,0-10.529-18.091,21.118,21.118,0,0,0-10.6-2.82,20.007,20.007,0,0,0-13.807,5.42h0Zm21.8,7.2a11.559,11.559,0,0,1,3.063,8.331,11.635,11.635,0,0,1-3.118,8.386,10.362,10.362,0,0,1-7.813,3.259A10.244,10.244,0,0,1,112.66,44.5a11.722,11.722,0,0,1-3.063-8.423,11.509,11.509,0,0,1,3.1-8.295A11.039,11.039,0,0,1,128.287,27.747ZM148.489,56h10V0.775h-10V56Zm17.981,0h10V0.775h-10V56Zm23.987-35.449a20.159,20.159,0,0,0-6.849,15.564,20.227,20.227,0,0,0,6.061,14.813,19.876,19.876,0,0,0,14.63,6.1,21.088,21.088,0,0,0,10.657-2.765,20.212,20.212,0,0,0,7.636-7.672,20.93,20.93,0,0,0,2.8-10.547,20.676,20.676,0,0,0-10.528-18.091,21.125,21.125,0,0,0-10.6-2.82,20,20,0,0,0-13.806,5.42h0Zm21.8,7.2a11.559,11.559,0,0,1,3.063,8.331,11.631,11.631,0,0,1-3.118,8.386,10.36,10.36,0,0,1-7.813,3.259,10.244,10.244,0,0,1-7.759-3.223,11.722,11.722,0,0,1-3.063-8.423,11.509,11.509,0,0,1,3.1-8.295A11.039,11.039,0,0,1,212.259,27.747ZM249.763,56q6.525,0,10.228-1.849a14.986,14.986,0,0,0,6.049-5.585,15.247,15.247,0,0,0,2.346-8.276,14.586,14.586,0,0,0-2.27-8.185,16.861,16.861,0,0,0-7.178-5.768,14.213,14.213,0,0,0,4.23-4.706,11.961,11.961,0,0,0,1.3-5.585,12.523,12.523,0,0,0-2.86-8.2,14.44,14.44,0,0,0-7.7-4.761,43.9,43.9,0,0,0-10.78-.952h-8.47V56h15.105Zm-2.2-44.092a7.911,7.911,0,0,1,5.256,1.483,5.012,5.012,0,0,1,1.728,4.01,5.372,5.372,0,0,1-1.819,4.285q-1.82,1.575-5.569,1.575h-2.243V11.908h2.647Zm-0.517,20.508q6.058,0,8.666,2.014a6.568,6.568,0,0,1,2.607,5.493,5.432,5.432,0,0,1-2.221,4.688q-2.221,1.612-8.612,1.611h-2.57V32.416h2.13Zm34.931-11.865a20.158,20.158,0,0,0-6.848,15.564,20.226,20.226,0,0,0,6.06,14.813,19.878,19.878,0,0,0,14.63,6.1,21.086,21.086,0,0,0,10.657-2.765,20.212,20.212,0,0,0,7.636-7.672,20.93,20.93,0,0,0,2.8-10.547,20.676,20.676,0,0,0-10.528-18.091,21.125,21.125,0,0,0-10.6-2.82,20,20,0,0,0-13.806,5.42h0Zm21.8,7.2a11.559,11.559,0,0,1,3.063,8.331,11.631,11.631,0,0,1-3.118,8.386,10.36,10.36,0,0,1-7.813,3.259,10.244,10.244,0,0,1-7.759-3.223,11.722,11.722,0,0,1-3.063-8.423,11.509,11.509,0,0,1,3.1-8.295A11.039,11.039,0,0,1,303.775,27.747Zm22.509-11.59h-5.127v8.606h5.127V56h10V24.762h5.932V16.156h-5.932V1.471h-10V16.156Z"/>
</svg>
