<svg xmlns="http://www.w3.org/2000/svg" viewBox="-5 -2 24 24" width="24" height="24" preserveAspectRatio="xMinYMin" class="icon__icon"><path d="M12.32 8.78a1.991 1.991 0 0 1 .399 1.468l-.5 4a1.996 1.996 0 0 1-.693 1.279l-.422 3.59a1 1 0 0 1-.993.883H3.889a1 1 0 0 1-.993-.883l-.422-3.59a1.996 1.996 0 0 1-.693-1.279l-.5-4a1.994 1.994 0 0 1 .4-1.467L1 3h12l-.68 5.78zM4.543 16l.235 2h4.444l.235-2H4.543zm-.941-8h6.796l.353-3H3.249l.353 3zm.164 6h6.468l.5-4H3.266l.5 4z"></path><path d="M2 2a2 2 0 0 1 2-2h6a2 2 0 0 1 2 2h.5a1.5 1.5 0 0 1 0 3h-11a1.5 1.5 0 0 1 0-3H2z"></path></svg>